<svg width="32" height="32" viewBox="0 0 32 32" fill="none" xmlns="http://www.w3.org/2000/svg">
<path d="M15.2466 22.167H16.6102V23.9852H15.2466V22.167Z" fill="#FEF6AA"/>
<path d="M16.6124 24.2073H15.2488C15.1233 24.2073 15.0215 24.1055 15.0215 23.9801V22.1618C15.0215 22.0364 15.1233 21.9346 15.2488 21.9346H16.6124C16.7378 21.9346 16.8396 22.0364 16.8396 22.1618V23.9801C16.8396 24.106 16.7378 24.2073 16.6124 24.2073ZM15.476 23.7528H16.3851V22.3891H15.476V23.7528Z" fill="#1F212B"/>
<path d="M15.2466 9.8916H16.6102V11.7098H15.2466V9.8916Z" fill="#FEF6AA"/>
<path d="M16.6124 11.9388H15.2488C15.1233 11.9388 15.0215 11.837 15.0215 11.7115V9.89329C15.0215 9.76784 15.1233 9.66602 15.2488 9.66602H16.6124C16.7378 9.66602 16.8396 9.76784 16.8396 9.89329V11.7115C16.8396 11.8374 16.7378 11.9388 16.6124 11.9388ZM15.476 11.4842H16.3851V10.1206H15.476V11.4842Z" fill="#1F212B"/>
<path d="M18.3124 12.3932C18.3124 13.021 17.8038 13.5296 17.1761 13.5296H14.6793C14.0516 13.5296 13.543 13.021 13.543 12.3932C13.543 11.7655 14.0516 11.2568 14.6793 11.2568H17.1761C17.8038 11.2568 18.3124 11.7659 18.3124 12.3932Z" fill="#FEF6AA"/>
<path d="M17.1758 13.7537H14.679C13.9272 13.7537 13.3154 13.1419 13.3154 12.39C13.3154 11.6382 13.9272 11.0264 14.679 11.0264H17.1758C17.9276 11.0264 18.5394 11.6382 18.5394 12.39C18.5394 13.1419 17.9276 13.7537 17.1758 13.7537ZM14.679 11.4809C14.1777 11.4809 13.77 11.8887 13.77 12.39C13.77 12.8914 14.1777 13.2991 14.679 13.2991H17.1758C17.6772 13.2991 18.0849 12.8914 18.0849 12.39C18.0849 11.8887 17.6772 11.4809 17.1758 11.4809H14.679Z" fill="#1F212B"/>
<path d="M28.1895 25.5861C28.0917 24.8097 27.3536 24.2061 26.4563 24.2061H5.84399C4.94673 24.2061 4.20857 24.8097 4.11084 25.5861V27.3879H28.2013L28.1895 25.5861Z" fill="#F9E65C"/>
<path d="M28.2027 27.8488H4.11225C3.9918 27.8488 3.87589 27.8011 3.79089 27.7156C3.7059 27.6302 3.65771 27.5147 3.65771 27.3943V25.5919C3.65771 25.5729 3.65862 25.5538 3.66135 25.5351C3.78908 24.5219 4.72769 23.7578 5.8454 23.7578H26.4582C27.5755 23.7578 28.5145 24.5219 28.6423 25.5351C28.6445 25.5528 28.6454 25.571 28.6459 25.5888L28.6577 27.3911C28.6586 27.5124 28.6109 27.6284 28.5254 27.7147C28.44 27.8006 28.3236 27.8488 28.2027 27.8488ZM4.56679 26.9397H27.7454L27.7368 25.6242C27.6536 25.0769 27.1091 24.6669 26.4582 24.6669H5.8454C5.19496 24.6669 4.65088 25.076 4.56724 25.6233L4.56679 26.9397Z" fill="#1F212B"/>
<path d="M15.9254 12.4609C10.19 12.4609 5.54102 17.1106 5.54102 22.8457H26.3102C26.3102 17.1106 21.6607 12.4609 15.9254 12.4609Z" fill="#F9E65C"/>
<path d="M26.3121 23.3031H5.54292C5.29201 23.3031 5.08838 23.0999 5.08838 22.8486C5.08838 16.8716 9.95101 12.0088 15.9277 12.0088C21.9044 12.0088 26.7671 16.8712 26.7671 22.8486C26.7666 23.0999 26.563 23.3031 26.3121 23.3031ZM6.00745 22.394H25.8471C25.6089 17.1284 21.2503 12.9184 15.9273 12.9184C10.6042 12.9184 6.24608 17.1284 6.00745 22.394Z" fill="#1F212B"/>
<path d="M17.6836 8.53032H14.1745C13.3191 8.46759 12.6255 9.16124 12.6255 9.89399H19.2326C19.2326 9.16124 18.539 8.46759 17.6836 8.53032Z" fill="#FEF6AA"/>
<path d="M19.2315 10.1211H12.6244C12.4989 10.1211 12.3971 10.0193 12.3971 9.8938C12.3971 9.47606 12.5862 9.0606 12.9162 8.75423C13.2607 8.43331 13.7216 8.2674 14.1902 8.30377L17.6747 8.30331C18.1361 8.27377 18.5974 8.43604 18.9402 8.75469C19.2702 9.06106 19.4592 9.47652 19.4592 9.89426C19.4592 9.95471 19.4351 10.0124 19.3929 10.0552C19.3506 10.0979 19.292 10.1211 19.2315 10.1211ZM12.8789 9.66652H18.9774C18.9265 9.45379 18.8065 9.25015 18.6306 9.08696C18.3747 8.84878 18.0429 8.73105 17.6993 8.7565C17.6938 8.75696 17.6884 8.75696 17.6825 8.75696H14.1734C13.8125 8.73196 13.4816 8.84832 13.2257 9.08651C13.0498 9.2506 12.9298 9.45379 12.8789 9.66652ZM25.2482 26.0305H23.8846C23.7592 26.0305 23.6573 25.9287 23.6573 25.8032C23.6573 25.6778 23.7592 25.576 23.8846 25.576H25.2482C25.3737 25.576 25.4755 25.6778 25.4755 25.8032C25.4755 25.9287 25.3737 26.0305 25.2482 26.0305ZM22.521 26.0305H3.88498C3.75953 26.0305 3.65771 25.9287 3.65771 25.8032C3.65771 25.6778 3.75953 25.576 3.88498 25.576H22.521C22.6465 25.576 22.7483 25.6778 22.7483 25.8032C22.7483 25.9287 22.6465 26.0305 22.521 26.0305Z" fill="#1F212B"/>
</svg>
