<svg width="32" height="32" viewBox="0 0 32 32" fill="none" xmlns="http://www.w3.org/2000/svg">
<path d="M8.31977 25.2797C8.31977 13.4397 8.31977 13.4397 8.31977 11.5197C8.31977 9.91969 5.75977 8.31969 5.75977 8.31969C5.75977 8.31969 6.39977 7.67969 7.99977 7.67969C10.2398 7.67969 21.7598 7.67969 21.7598 7.67969V25.9197" fill="#FEFDEF"/>
<path d="M22.4002 25.2803H7.68018V27.2003H22.4002V25.2803Z" fill="#5C769B"/>
<path d="M8.31982 20.6396C8.31982 22.8739 8.31982 25.2796 8.31982 25.2796H21.7598V20.6396H8.31982Z" fill="#FBB97F"/>
<path d="M21.7598 14.3998H23.6798C24.0334 14.3998 24.3198 14.6862 24.3198 15.0398V19.8398C24.3198 20.7234 25.0362 21.4398 25.9198 21.4398H26.2398V13.5998C26.2398 12.6277 25.4519 11.8398 24.4798 11.8398H21.7598" fill="#5C769B"/>
<path d="M8.31982 7.6798C8.31982 6.08908 11.3285 4.7998 15.0398 4.7998C18.7512 4.7998 21.7598 6.08908 21.7598 7.6798" fill="#D1DAE7"/>
<path d="M21.5998 11.2002H8.31982V14.8802H21.5998V11.2002Z" fill="#D1DAE7"/>
<path d="M15.8402 20.6397H14.2402V19.3597C14.2402 19.0061 14.5266 18.7197 14.8802 18.7197H15.2002C15.5538 18.7197 15.8402 19.0061 15.8402 19.3597V20.6397Z" fill="#7C8A9E"/>
<path d="M21.6 20.6396V20.9596C21.6 21.8432 20.8835 22.2396 20 22.2396H10.08C9.19646 22.2396 8.47998 21.8432 8.47998 20.9596V20.6396H21.6Z" fill="#A2B4CC"/>
<path d="M22.0802 25.2804H21.4402V8.00035H8.00022C7.19222 8.00035 6.65334 8.17539 6.33782 8.32771C7.09686 8.87907 8.64022 10.1668 8.64022 11.5204V25.2804H8.00022V11.5204C8.00022 10.3556 6.2607 9.01123 5.59062 8.59171C5.50806 8.54019 5.45334 8.45315 5.44246 8.35683C5.43158 8.25987 5.46486 8.16323 5.53398 8.09443C5.56406 8.06403 6.28726 7.36035 8.00022 7.36035H21.7602C21.9372 7.36035 22.0802 7.50339 22.0802 7.68035V25.2804Z" fill="#1F212B"/>
<path d="M26.2403 21.7595H25.9203C24.8614 21.7595 24.0003 20.8984 24.0003 19.8395V15.0395C24.0003 14.8629 23.8569 14.7195 23.6803 14.7195H21.7603V14.0795H23.6803C24.2095 14.0795 24.6403 14.5103 24.6403 15.0395V19.8395C24.6403 20.5455 25.2143 21.1195 25.9203 21.1195V13.5995C25.9203 12.8056 25.2742 12.1595 24.4803 12.1595H21.7603V11.5195H24.4803C25.6271 11.5195 26.5603 12.4527 26.5603 13.5995V21.4395C26.5603 21.6165 26.4172 21.7595 26.2403 21.7595Z" fill="#1F212B"/>
<path d="M21.6003 14.7197H8.32031V15.0397H21.6003V14.7197Z" fill="#1F212B"/>
<path d="M22.4004 27.52H7.68035C7.50339 27.52 7.36035 27.3769 7.36035 27.2V25.28C7.36035 25.103 7.50339 24.96 7.68035 24.96H22.4004C22.5773 24.96 22.7204 25.103 22.7204 25.28V27.2C22.7204 27.3769 22.5773 27.52 22.4004 27.52ZM8.00035 26.88H22.0804V25.6H8.00035V26.88Z" fill="#1F212B"/>
<path d="M15.0402 18.8797C14.8633 18.8797 14.7202 18.7367 14.7202 18.5597V15.0397C14.7202 14.8628 14.8633 14.7197 15.0402 14.7197C15.2172 14.7197 15.3602 14.8628 15.3602 15.0397V18.5597C15.3602 18.7367 15.2172 18.8797 15.0402 18.8797Z" fill="#1F212B"/>
<path d="M15.0402 11.5197C14.8633 11.5197 14.7202 11.3767 14.7202 11.1997V7.67937C14.7202 7.50242 14.8633 7.35938 15.0402 7.35938C15.2172 7.35938 15.3602 7.50242 15.3602 7.67937V11.1997C15.3602 11.3767 15.2172 11.5197 15.0402 11.5197Z" fill="#1F212B"/>
<path d="M22.08 7.67949H21.44C21.44 6.44333 18.8685 5.11949 15.04 5.11949C11.2115 5.11949 8.64 6.44333 8.64 7.67949H8C8 5.88525 11.0922 4.47949 15.04 4.47949C18.9878 4.47949 22.08 5.88525 22.08 7.67949Z" fill="#1F212B"/>
<path d="M15.3602 2.55957H14.7202V4.79957H15.3602V2.55957Z" fill="#1F212B"/>
<path d="M16.0003 2.55992H14.0803C13.9033 2.55992 13.7603 2.41688 13.7603 2.23992C13.7603 2.06296 13.9033 1.91992 14.0803 1.91992H16.0003C16.1772 1.91992 16.3203 2.06296 16.3203 2.23992C16.3203 2.41688 16.1772 2.55992 16.0003 2.55992Z" fill="#1F212B"/>
<path d="M20.0003 22.3995H10.0803C8.99455 22.3995 8.32031 21.8475 8.32031 20.9595V20.6395C8.32031 20.5512 8.39199 20.4795 8.48031 20.4795H21.6003C21.6886 20.4795 21.7603 20.5512 21.7603 20.6395V20.9595C21.7603 21.8475 21.0861 22.3995 20.0003 22.3995ZM8.64031 20.7995V20.9595C8.64031 21.9989 9.74239 22.0795 10.0803 22.0795H20.0003C20.3382 22.0795 21.4403 21.9989 21.4403 20.9595V20.7995H8.64031Z" fill="#1F212B"/>
<path d="M15.8401 20.7996H14.2401C14.1518 20.7996 14.0801 20.7279 14.0801 20.6396V19.3596C14.0801 18.9183 14.4388 18.5596 14.8801 18.5596H15.2001C15.6414 18.5596 16.0001 18.9183 16.0001 19.3596V20.6396C16.0001 20.7279 15.9284 20.7996 15.8401 20.7996ZM14.4001 20.4796H15.6801V19.3596C15.6801 19.0949 15.4647 18.8796 15.2001 18.8796H14.8801C14.6154 18.8796 14.4001 19.0949 14.4001 19.3596V20.4796Z" fill="#1F212B"/>
<path d="M17.4402 11.5202H8.32016C8.23184 11.5202 8.16016 11.4485 8.16016 11.3602C8.16016 11.2719 8.23184 11.2002 8.32016 11.2002H17.4402C17.5285 11.2002 17.6002 11.2719 17.6002 11.3602C17.6002 11.4485 17.5285 11.5202 17.4402 11.5202Z" fill="#1F212B"/>
<path d="M20.6402 11.5202H20.3202C20.2318 11.5202 20.1602 11.4485 20.1602 11.3602C20.1602 11.2719 20.2318 11.2002 20.3202 11.2002H20.6402C20.7285 11.2002 20.8002 11.2719 20.8002 11.3602C20.8002 11.4485 20.7285 11.5202 20.6402 11.5202Z" fill="#1F212B"/>
<path d="M19.3602 11.5202H18.4002C18.3119 11.5202 18.2402 11.4485 18.2402 11.3602C18.2402 11.2719 18.3119 11.2002 18.4002 11.2002H19.3602C19.4486 11.2002 19.5202 11.2719 19.5202 11.3602C19.5202 11.4485 19.4486 11.5202 19.3602 11.5202Z" fill="#1F212B"/>
</svg>
