<svg width="33" height="32" viewBox="0 0 33 32" fill="none" xmlns="http://www.w3.org/2000/svg">
<path d="M10.8305 12.888C10.8305 12.888 11.3104 12.0016 10.0512 11.5768C10.0512 11.5768 9.64468 9.91109 8.26321 10.3909C8.26321 10.3909 6.95204 8.03449 4.93485 9.22036C3.32109 10.177 4.3847 12.2492 4.3847 12.2492C4.3847 12.2492 3.35777 13.4014 4.42138 14.3886C4.42138 14.3886 4.29607 16.3203 5.78451 16.1797L6.84507 17.1516" fill="#67CE36"/>
<path d="M10.8305 12.888C10.8305 12.888 11.3104 12.0016 10.0512 11.5768C10.0512 11.5768 9.64468 9.91109 8.26321 10.3909C8.26321 10.3909 6.95204 8.03449 4.93485 9.22036C3.32109 10.177 4.3847 12.2492 4.3847 12.2492C4.3847 12.2492 3.35777 13.4014 4.42138 14.3886C4.42138 14.3886 4.29607 16.3203 5.78451 16.1797L6.84507 17.1516" stroke="#121213" stroke-width="0.5" stroke-linecap="round" stroke-linejoin="round"/>
<path d="M10.6442 19.0121C12.2411 19.0121 13.5355 17.7176 13.5355 16.1208C13.5355 14.524 12.2411 13.2295 10.6442 13.2295C9.04741 13.2295 7.75293 14.524 7.75293 16.1208C7.75293 17.7176 9.04741 19.0121 10.6442 19.0121Z" fill="#F04348"/>
<path d="M13.6116 17.056C13.6116 17.056 12.6367 14.4856 13.4344 13.8499C13.4527 13.8499 12.7956 12.0314 14.284 11.8327C14.338 11.6463 14.4284 11.4725 14.5502 11.3213C14.6719 11.1702 14.8224 11.0448 14.9931 10.9523C15.1637 10.8599 15.351 10.8023 15.5441 10.7829C15.7372 10.7636 15.9322 10.7828 16.1179 10.8394C16.1179 10.8394 17.2915 8.96893 19.1436 10.1365C20.8613 11.2276 19.3729 13.5993 19.3729 13.5993L16.3929 17.2089L13.6116 17.056Z" fill="#67CE36" stroke="#121213" stroke-width="0.5" stroke-linecap="round" stroke-linejoin="round"/>
<path d="M6.30713 17.4717H26.5585C26.5585 17.4717 27.0109 22.5727 21.2832 25.681H11.6007C10.0344 24.9507 8.70633 23.7925 7.76972 22.34C6.83312 20.8875 6.32611 19.1999 6.30713 17.4717Z" fill="#F18E8E"/>
<path d="M7.26071 21.4449C6.6553 20.2065 6.32975 18.85 6.30713 17.4717H26.5585C26.5585 17.4717 27.0109 22.5727 21.2833 25.681H11.6007C10.9716 25.3986 10.381 25.037 9.84333 24.6052" stroke="#121213" stroke-width="0.5" stroke-linecap="round" stroke-linejoin="round"/>
<path d="M21.7934 28.5118H22.5056C22.5056 28.5118 22.7042 27.3168 21.283 25.7367L11.6922 25.6816C11.6922 25.6816 10.2313 27.1426 10.4697 28.5118H19.223" fill="#F18E8E"/>
<path d="M21.7934 28.5118H22.5056C22.5056 28.5118 22.7042 27.3168 21.283 25.7367L11.6922 25.6816C11.6922 25.6816 10.2313 27.1426 10.4697 28.5118H19.223" stroke="#121213" stroke-width="0.5" stroke-linecap="round" stroke-linejoin="round"/>
<path d="M23.3159 22.5487C23.7651 22.1121 24.1261 21.5933 24.3795 21.0205" stroke="#121213" stroke-width="0.5" stroke-linecap="round" stroke-linejoin="round"/>
<path d="M24.5659 17.2093C24.5659 17.2093 25.2047 16.0785 24.6729 15.2685L22.1208 13.0771C22.1208 13.0771 21.3903 12.4261 20.1281 13.3033C18.8658 14.1805 16.543 17.1298 16.543 17.1298" fill="#F39200"/>
<path d="M24.5659 17.2093C24.5659 17.2093 25.2047 16.0785 24.6729 15.2685L22.1208 13.0771C22.1208 13.0771 21.3903 12.4261 20.1281 13.3033C18.8658 14.1805 16.543 17.1298 16.543 17.1298" stroke="#121213" stroke-width="0.5" stroke-linecap="round" stroke-linejoin="round"/>
<path d="M23.2636 13.8354C23.2636 13.8354 23.6182 12.3072 22.0778 9.92022C21.1211 8.32786 22.8449 8.4165 23.3889 9.15919C23.8932 9.84993 24.3456 10.2748 24.1683 11.8702C24.1133 12.8452 23.2636 13.8354 23.2636 13.8354Z" fill="#67CE36" stroke="#121213" stroke-width="0.5" stroke-linecap="round" stroke-linejoin="round"/>
<path d="M23.3159 13.8688L24.8838 10.2012C24.8838 10.2012 25.8496 8.78304 26.6932 10.1828C27.5367 11.5827 23.7285 14.1103 23.7285 14.1103" fill="#88B337"/>
<path d="M23.3159 13.8688L24.8838 10.2012C24.8838 10.2012 25.8496 8.78304 26.6932 10.1828C27.5367 11.5827 23.7285 14.1103 23.7285 14.1103" stroke="#121213" stroke-width="0.5" stroke-linecap="round" stroke-linejoin="round"/>
<path d="M23.5723 13.9852C23.5723 13.9852 26.5125 11.6838 28.6397 13.6307C29.685 14.7035 28.5144 14.9846 28.0712 14.8013C27.628 14.6179 26.867 13.8446 23.8321 14.19" fill="#67CE36"/>
<path d="M23.5723 13.9852C23.5723 13.9852 26.5125 11.6838 28.6397 13.6307C29.685 14.7035 28.5144 14.9846 28.0712 14.8013C27.628 14.6179 26.867 13.8446 23.8321 14.19" stroke="#121213" stroke-width="0.5" stroke-linecap="round" stroke-linejoin="round"/>
<path d="M14.1068 17.056L17.8264 11.9733M16.5427 13.4434L16.286 12.3095M16.8514 13.6757L17.9853 13.5504M15.4546 15.6409L17.3129 15.4637M15.0451 15.4637L14.6753 13.5504M13.6116 17.056C13.6116 17.056 12.6367 14.4856 13.4344 13.8499C13.4527 13.8499 12.7956 12.0314 14.284 11.8327C14.338 11.6463 14.4284 11.4725 14.5502 11.3213C14.6719 11.1702 14.8224 11.0448 14.9931 10.9523C15.1637 10.8599 15.351 10.8023 15.5441 10.7829C15.7372 10.7636 15.9322 10.7828 16.1179 10.8394C16.1179 10.8394 17.2915 8.96893 19.1436 10.1365C20.8613 11.2276 19.3729 13.5993 19.3729 13.5993" stroke="#121213" stroke-width="0.5" stroke-linecap="round" stroke-linejoin="round"/>
<path d="M13.6116 17.056C13.6116 17.056 12.6367 14.4856 13.4344 13.8499C13.4527 13.8499 12.7956 12.0314 14.284 11.8327C14.338 11.6463 14.4284 11.4725 14.5502 11.3213C14.6719 11.1702 14.8224 11.0448 14.9931 10.9523C15.1637 10.8599 15.351 10.8023 15.5441 10.7829C15.7372 10.7636 15.9322 10.7828 16.1179 10.8394C16.1179 10.8394 17.2915 8.96893 19.1436 10.1365C20.8613 11.2276 19.3729 13.5993 19.3729 13.5993" stroke="#121213" stroke-width="0.5" stroke-linecap="round" stroke-linejoin="round"/>
<path d="M13.1776 12.1361C13.003 12.0902 12.8449 11.9962 12.7212 11.8648C12.5974 11.7333 12.5132 11.5698 12.478 11.3927C12.4428 11.2157 12.458 11.0323 12.522 10.8636C12.586 10.6948 12.6962 10.5474 12.8399 10.4382C12.9837 10.3291 13.1552 10.2625 13.335 10.2462C13.5147 10.2298 13.6955 10.2643 13.8565 10.3457C14.0176 10.4271 14.1526 10.5522 14.246 10.7067C14.3394 10.8611 14.3875 11.0387 14.3849 11.2192" fill="#F39200"/>
<path d="M13.1776 12.1361C13.003 12.0902 12.8449 11.9962 12.7212 11.8648C12.5974 11.7333 12.5132 11.5698 12.478 11.3927C12.4428 11.2157 12.458 11.0323 12.522 10.8636C12.586 10.6948 12.6962 10.5474 12.8399 10.4382C12.9837 10.3291 13.1552 10.2625 13.335 10.2462C13.5147 10.2298 13.6955 10.2643 13.8565 10.3457C14.0176 10.4271 14.1526 10.5522 14.246 10.7067C14.3394 10.8611 14.3875 11.0387 14.3849 11.2192" stroke="#121213" stroke-width="0.5" stroke-linecap="round" stroke-linejoin="round"/>
<path d="M7.80182 17.4294C7.52728 16.7333 7.5115 15.9618 7.75737 15.255C8.00323 14.5482 8.49443 13.9531 9.14174 13.5777C9.78905 13.2022 10.5496 13.0714 11.2851 13.2089C12.0207 13.3465 12.6825 13.7432 13.1504 14.3272M10.6717 14.7032V17.0565M11.8423 15.128L10.0513 16.9679M9.41557 15.128L11.4694 17.0565M12.2824 16.3139H9.06715M6.31643 11.1914L7.87517 14.205M5.8916 12.8449L6.97049 13.1322M7.32503 12.8479L7.87517 11.8332M6.2278 14.8529L7.46562 15.2808" stroke="#121213" stroke-width="0.5" stroke-linecap="round" stroke-linejoin="round"/>
<path d="M10.6379 7.91154C11.2067 7.91154 11.6679 7.4504 11.6679 6.88155C11.6679 6.31271 11.2067 5.85156 10.6379 5.85156C10.0691 5.85156 9.60791 6.31271 9.60791 6.88155C9.60791 7.4504 10.0691 7.91154 10.6379 7.91154Z" fill="#F39200" stroke="#121213" stroke-width="0.5" stroke-linecap="round" stroke-linejoin="round"/>
<path d="M15.0451 5.54924C15.614 5.54924 16.0751 5.0881 16.0751 4.51925C16.0751 3.9504 15.614 3.48926 15.0451 3.48926C14.4763 3.48926 14.0151 3.9504 14.0151 4.51925C14.0151 5.0881 14.4763 5.54924 15.0451 5.54924Z" fill="#F39200" stroke="#121213" stroke-width="0.5" stroke-linecap="round" stroke-linejoin="round"/>
<path d="M20.5285 7.47209C21.0974 7.47209 21.5585 7.01095 21.5585 6.4421C21.5585 5.87325 21.0974 5.41211 20.5285 5.41211C19.9597 5.41211 19.4985 5.87325 19.4985 6.4421C19.4985 7.01095 19.9597 7.47209 20.5285 7.47209Z" fill="#F39200" stroke="#121213" stroke-width="0.5" stroke-linecap="round" stroke-linejoin="round"/>
</svg>
