<svg width="48" height="48" viewBox="0 0 48 48" fill="none" xmlns="http://www.w3.org/2000/svg">
<g clip-path="url(#clip0_1_8941)">
<path d="M47.0661 24.217C47.0661 30.4199 44.602 36.3687 40.216 40.7548C35.8299 45.1409 29.8811 47.6049 23.6782 47.6049C17.4753 47.6049 11.5265 45.1409 7.14045 40.7548C2.75436 36.3687 0.290283 30.4199 0.290283 24.217C0.290283 18.0142 2.75436 12.0654 7.14045 7.67927C11.5265 3.29318 17.4753 0.829102 23.6782 0.829102C29.8811 0.829102 35.8299 3.29318 40.216 7.67927C44.602 12.0654 47.0661 18.0142 47.0661 24.217ZM20.1408 15.7184C19.9222 15.5628 19.665 15.4704 19.3974 15.4512C19.1298 15.432 18.862 15.4869 18.6235 15.6098C18.385 15.7326 18.1849 15.9188 18.0451 16.1479C17.9054 16.3769 17.8314 16.64 17.8312 16.9083V31.5257C17.8314 31.7941 17.9054 32.0571 18.0451 32.2862C18.1849 32.5152 18.385 32.7014 18.6235 32.8243C18.862 32.9472 19.1298 33.002 19.3974 32.9829C19.665 32.9637 19.9222 32.8712 20.1408 32.7156L30.373 25.4069C30.5625 25.2717 30.7169 25.0931 30.8235 24.8862C30.9301 24.6792 30.9857 24.4498 30.9857 24.217C30.9857 23.9842 30.9301 23.7548 30.8235 23.5479C30.7169 23.3409 30.5625 23.1624 30.373 23.0272L20.1408 15.7184Z" fill="white"/>
</g>
<defs>
<clipPath id="clip0_1_8941">
<rect width="46.7758" height="46.7758" fill="white" transform="translate(0.290283 0.828613)"/>
</clipPath>
</defs>
</svg>
