<svg width="24" height="24" viewBox="0 0 24 24" fill="none" xmlns="http://www.w3.org/2000/svg">
<path fill-rule="evenodd" clip-rule="evenodd" d="M8.81667 1.39513C9.21388 1.39513 9.53589 1.71713 9.53589 2.11434V3.3232C10.1776 3.31303 10.8907 3.31303 11.6829 3.31303H11.7041C12.4963 3.31303 13.2094 3.31303 13.8512 3.3232V2.11434C13.8512 1.71713 14.1732 1.39513 14.5704 1.39513C14.9676 1.39513 15.2896 1.71713 15.2896 2.11434V3.374C16.7394 3.46489 17.8533 3.69982 18.7704 4.3661C19.2385 4.7062 19.6501 5.11786 19.9902 5.58597C20.552 6.35919 20.8036 7.26481 20.9247 8.3825C21.0433 9.47775 21.0433 10.8583 21.0433 12.6194V12.6738C21.0433 13.7861 21.0433 14.7424 21.0151 15.5643C20.9536 17.3608 20.7592 18.6813 19.9902 19.7396C19.6501 20.2077 19.2385 20.6194 18.7704 20.9595C17.712 21.7284 16.3915 21.9229 14.595 21.9844C13.7729 22.0126 12.8164 22.0126 11.7039 22.0126H11.6501C9.88897 22.0126 8.50847 22.0126 7.41322 21.8939C6.29553 21.7728 5.38992 21.5213 4.61669 20.9595C4.14858 20.6194 3.73692 20.2077 3.39682 19.7396C2.83504 18.9664 2.58349 18.0608 2.4624 16.9431C2.34374 15.8479 2.34374 14.4673 2.34375 12.7062V12.6194C2.34374 10.8583 2.34374 9.47775 2.4624 8.3825C2.58349 7.26481 2.83504 6.35919 3.39682 5.58597C3.73692 5.11786 4.14858 4.7062 4.61669 4.3661C5.53375 3.69982 6.6476 3.46489 8.09746 3.374V2.11434C8.09746 1.71713 8.41946 1.39513 8.81667 1.39513ZM8.09746 4.81595C6.79132 4.90577 6.03741 5.11188 5.46218 5.52982C5.11618 5.78119 4.81191 6.08546 4.56054 6.43146C4.2066 6.91861 4.00029 7.54213 3.89246 8.53744C3.78316 9.54621 3.78218 10.8489 3.78218 12.6628C3.78218 14.4767 3.78316 15.7794 3.89246 16.7882C4.00029 17.7835 4.2066 18.407 4.56054 18.8942C4.81191 19.2401 5.11618 19.5444 5.46218 19.7958C5.94933 20.1497 6.57285 20.356 7.56816 20.4639C8.57693 20.5732 9.8796 20.5742 11.6935 20.5742C12.507 20.5742 13.22 20.5741 13.8529 20.5638C13.8571 20.1086 13.8713 19.7735 13.9191 19.4718C14.2927 17.1125 16.1432 15.262 18.5026 14.8883C18.8043 14.8405 19.1393 14.8264 19.5945 14.8222C19.6048 14.1892 19.6049 13.4763 19.6049 12.6628C19.6049 10.8489 19.6039 9.54621 19.4946 8.53744C19.3868 7.54213 19.1805 6.91861 18.8265 6.43146C18.5751 6.08546 18.2709 5.78119 17.9249 5.52982C17.3496 5.11188 16.5957 4.90577 15.2896 4.81595V4.99119C15.2896 5.3884 14.9676 5.71041 14.5704 5.71041C14.1732 5.71041 13.8512 5.3884 13.8512 4.99119V4.7618C13.2187 4.7515 12.5063 4.75146 11.6935 4.75146C10.8808 4.75146 10.1684 4.7515 9.53589 4.7618V4.99119C9.53589 5.3884 9.21388 5.71041 8.81667 5.71041C8.41946 5.71041 8.09746 5.3884 8.09746 4.99119V4.81595ZM19.5402 16.2615C19.1519 16.266 18.9242 16.2779 18.7276 16.309C16.9837 16.5853 15.616 17.953 15.3398 19.6969C15.3086 19.8935 15.2967 20.1212 15.2923 20.5095C16.5968 20.4196 17.35 20.2134 17.9249 19.7958C18.2709 19.5444 18.5751 19.2401 18.8265 18.8942C19.2442 18.3193 19.4503 17.566 19.5402 16.2615Z" fill="white"/>
<path d="M7.85772 8.827C7.85772 9.35661 7.42838 9.78595 6.89877 9.78595C6.36915 9.78595 5.93982 9.35661 5.93982 8.827C5.93982 8.29739 6.36915 7.86805 6.89877 7.86805C7.42838 7.86805 7.85772 8.29739 7.85772 8.827Z" fill="white"/>
<path d="M7.85772 12.6628C7.85772 13.1924 7.42838 13.6218 6.89877 13.6218C6.36915 13.6218 5.93982 13.1924 5.93982 12.6628C5.93982 12.1332 6.36915 11.7039 6.89877 11.7039C7.42838 11.7039 7.85772 12.1332 7.85772 12.6628Z" fill="white"/>
<path d="M12.6525 8.827C12.6525 9.35661 12.2231 9.78595 11.6935 9.78595C11.1639 9.78595 10.7346 9.35661 10.7346 8.827C10.7346 8.29739 11.1639 7.86805 11.6935 7.86805C12.2231 7.86805 12.6525 8.29739 12.6525 8.827Z" fill="white"/>
<path d="M12.6525 12.6628C12.6525 13.1924 12.2231 13.6218 11.6935 13.6218C11.1639 13.6218 10.7346 13.1924 10.7346 12.6628C10.7346 12.1332 11.1639 11.7039 11.6935 11.7039C12.2231 11.7039 12.6525 12.1332 12.6525 12.6628Z" fill="white"/>
<path d="M12.6525 16.4986C12.6525 17.0282 12.2231 17.4576 11.6935 17.4576C11.1639 17.4576 10.7346 17.0282 10.7346 16.4986C10.7346 15.969 11.1639 15.5397 11.6935 15.5397C12.2231 15.5397 12.6525 15.969 12.6525 16.4986Z" fill="white"/>
<path d="M17.4472 8.827C17.4472 9.35661 17.0179 9.78595 16.4883 9.78595C15.9587 9.78595 15.5293 9.35661 15.5293 8.827C15.5293 8.29739 15.9587 7.86805 16.4883 7.86805C17.0179 7.86805 17.4472 8.29739 17.4472 8.827Z" fill="white"/>
<path d="M17.4472 12.6628C17.4472 13.1924 17.0179 13.6218 16.4883 13.6218C15.9587 13.6218 15.5293 13.1924 15.5293 12.6628C15.5293 12.1332 15.9587 11.7039 16.4883 11.7039C17.0179 11.7039 17.4472 12.1332 17.4472 12.6628Z" fill="white"/>
<path d="M7.85772 16.4986C7.85772 17.0282 7.42838 17.4576 6.89877 17.4576C6.36915 17.4576 5.93982 17.0282 5.93982 16.4986C5.93982 15.969 6.36915 15.5397 6.89877 15.5397C7.42838 15.5397 7.85772 15.969 7.85772 16.4986Z" fill="white"/>
</svg>
