<svg width="24" height="24" viewBox="0 0 24 24" fill="none" xmlns="http://www.w3.org/2000/svg">
<g clip-path="url(#clip0_1_8958)">
<path d="M15.029 16.294C14.889 16.2959 14.7521 16.2518 14.6395 16.1685C14.5269 16.0852 14.4446 15.9673 14.4054 15.8329C14.3661 15.6984 14.372 15.5548 14.4222 15.424C14.4723 15.2932 14.5639 15.1824 14.683 15.1086C15.2661 14.7447 15.7449 14.2359 16.0729 13.6319C16.4009 13.0279 16.5669 12.3493 16.5546 11.6621C16.5424 10.9749 16.3523 10.3025 16.003 9.71063C15.6536 9.11871 15.157 8.62736 14.5613 8.28446C14.4847 8.24441 14.417 8.18927 14.3623 8.12238C14.3076 8.05549 14.267 7.97822 14.2429 7.89522C14.2188 7.81223 14.2118 7.72522 14.2222 7.63943C14.2326 7.55364 14.2603 7.47084 14.3035 7.39603C14.3468 7.32121 14.4047 7.25591 14.4739 7.20406C14.543 7.15221 14.6219 7.11489 14.7058 7.09433C14.7898 7.07377 14.877 7.0704 14.9623 7.08442C15.0476 7.09845 15.1291 7.12958 15.202 7.17594C15.9863 7.63069 16.6397 8.28038 17.0989 9.06201C17.5582 9.84364 17.8076 10.7307 17.8231 11.6371C17.8385 12.5435 17.6195 13.4385 17.1872 14.2354C16.755 15.0322 16.1241 15.7038 15.3558 16.1851C15.2589 16.2506 15.1459 16.2882 15.029 16.294Z" fill="white"/>
<path d="M16.445 20.0938C16.3016 20.093 16.1625 20.044 16.0502 19.9547C15.9379 19.8655 15.8587 19.7411 15.8255 19.6015C15.7923 19.4619 15.8068 19.3152 15.8669 19.1849C15.9269 19.0546 16.029 18.9482 16.1567 18.8828C17.5009 18.2205 18.6312 17.1926 19.4179 15.9172C20.2045 14.6418 20.6158 13.1705 20.6044 11.6721C20.593 10.1736 20.1595 8.70868 19.3536 7.44537C18.5476 6.18205 17.4019 5.17151 16.0478 4.52966C15.9697 4.49455 15.8994 4.44413 15.8411 4.38139C15.7828 4.31865 15.7376 4.24486 15.7083 4.16438C15.679 4.0839 15.6662 3.99836 15.6705 3.91282C15.6748 3.82728 15.6963 3.74348 15.7335 3.66637C15.7708 3.58925 15.8232 3.5204 15.8875 3.46386C15.9518 3.40733 16.0269 3.36427 16.1081 3.33722C16.1894 3.31018 16.2752 3.2997 16.3606 3.30641C16.446 3.31312 16.5292 3.33688 16.6052 3.37628C18.1781 4.11881 19.5098 5.28963 20.4476 6.75445C21.3854 8.21926 21.8914 9.91876 21.9074 11.658C21.9235 13.3972 21.449 15.1058 20.5384 16.5877C19.6278 18.0695 18.3179 19.2647 16.759 20.0362C16.6609 20.0816 16.5529 20.1014 16.445 20.0938Z" fill="white"/>
<path d="M11.7738 2.67792L5.84034 7.80404L1.99575 7.80404C1.8258 7.80404 1.66282 7.87155 1.54266 7.99172C1.42249 8.11189 1.35498 8.27487 1.35498 8.44481L1.35498 14.8012C1.35498 14.9711 1.42249 15.1341 1.54266 15.2543C1.66282 15.3745 1.8258 15.442 1.99575 15.442H5.71859L11.7802 20.7219C11.8719 20.8025 11.9847 20.8552 12.1054 20.8738C12.226 20.8925 12.3495 20.8763 12.4612 20.8272C12.573 20.778 12.6684 20.698 12.7361 20.5965C12.8039 20.4949 12.8413 20.3762 12.8439 20.2541L12.8439 3.13927C12.8412 3.01655 12.8033 2.8972 12.7347 2.7954C12.6661 2.6936 12.5697 2.61365 12.457 2.56505C12.3443 2.51645 12.2199 2.50126 12.0988 2.52127C11.9777 2.54128 11.8649 2.59565 11.7738 2.67792Z" fill="white"/>
</g>
<defs>
<clipPath id="clip0_1_8958">
<rect width="23.0675" height="23.0675" fill="white" transform="translate(0.0285645 0.114014)"/>
</clipPath>
</defs>
</svg>
