<svg width="44" height="44" viewBox="0 0 44 44" fill="none" xmlns="http://www.w3.org/2000/svg">
<path opacity="0.4" d="M29.401 39.574L14.9406 39.574C8.67525 39.574 4.46708 35.5446 4.46708 29.5448L4.46708 14.1957C4.46708 8.1959 8.67525 4.16653 14.9406 4.16654L29.401 4.16654C35.6646 4.16654 39.8745 8.19767 39.8745 14.1975L39.8745 29.5448C39.8745 35.5446 35.6646 39.574 29.401 39.574Z" fill="#444BFF" fill-opacity="0.5"/>
<path d="M20.6565 29.447L13.9911 22.8117C13.49 22.3124 13.49 21.429 13.9911 20.928L20.6565 14.2926C21.177 13.7757 22.0179 13.7775 22.5349 14.298C23.0518 14.8184 23.0518 15.6576 22.5313 16.1763L18.1461 20.5438L29.3968 20.5438C30.1315 20.5438 30.7246 21.1387 30.7246 21.8716C30.7246 22.6045 30.1315 23.1994 29.3968 23.1994L18.1461 23.1994L22.5313 27.5651C22.7916 27.8254 22.9208 28.1653 22.9208 28.507C22.9208 28.8451 22.7916 29.185 22.5349 29.4435C22.0179 29.9622 21.177 29.964 20.6565 29.447Z" fill="white"/>
</svg>
