<svg width="43" height="44" viewBox="0 0 43 44" fill="none" xmlns="http://www.w3.org/2000/svg">
<path opacity="0.4" d="M14.267 39.574L28.7274 39.574C34.9927 39.574 39.2009 35.5446 39.2009 29.5449L39.2009 14.1957C39.2009 8.19594 34.9927 4.16658 28.7274 4.16658L14.267 4.16658C8.0034 4.16658 3.79346 8.19771 3.79346 14.1975L3.79346 29.5449C3.79346 35.5446 8.0034 39.574 14.267 39.574Z" fill="#444BFF" fill-opacity="0.5"/>
<path d="M23.0115 29.4471L29.6769 22.8117C30.1779 22.3125 30.1779 21.4291 29.6769 20.928L23.0115 14.2927C22.491 13.7757 21.65 13.7775 21.1331 14.298C20.6162 14.8185 20.6162 15.6576 21.1366 16.1764L25.5219 20.5439L14.2711 20.5439C13.5364 20.5439 12.9434 21.1387 12.9434 21.8716C12.9434 22.6046 13.5364 23.1994 14.2711 23.1994L25.5219 23.1994L21.1366 27.5652C20.8764 27.8254 20.7472 28.1653 20.7472 28.507C20.7472 28.8451 20.8764 29.1851 21.1331 29.4435C21.65 29.9622 22.491 29.964 23.0115 29.4471Z" fill="white"/>
</svg>
