<svg width="35" height="35" viewBox="0 0 35 35" fill="none" xmlns="http://www.w3.org/2000/svg">
<g opacity="0.9">
<circle cx="17.408" cy="17.2166" r="16.9803" fill="white"/>
<path d="M10.0391 22.0229V25.2263H13.2425L22.6903 15.7784L19.4869 12.575L10.0391 22.0229ZM25.1676 13.3011C25.2468 13.2221 25.3096 13.1282 25.3525 13.0249C25.3954 12.9215 25.4174 12.8107 25.4174 12.6989C25.4174 12.587 25.3954 12.4762 25.3525 12.3729C25.3096 12.2695 25.2468 12.1757 25.1676 12.0966L23.1687 10.0977C23.0897 10.0185 22.9958 9.9557 22.8925 9.91283C22.7891 9.86997 22.6783 9.8479 22.5665 9.8479C22.4546 9.8479 22.3438 9.86997 22.2405 9.91283C22.1371 9.9557 22.0432 10.0185 21.9642 10.0977L20.401 11.661L23.6044 14.8644L25.1676 13.3011Z" fill="black"/>
</g>
</svg>
