<svg width="34" height="34" viewBox="0 0 34 34" fill="none" xmlns="http://www.w3.org/2000/svg">
<g clip-path="url(#clip0_1_8917)">
<path d="M0.934982 16.8412C0.934197 19.6538 1.67486 22.4002 3.08321 24.8208L0.800293 33.0915L9.33043 30.8722C11.6897 32.1466 14.3332 32.8144 17.0195 32.8146H17.0265C25.8944 32.8146 33.1131 25.6545 33.1169 16.8538C33.1186 12.5892 31.4464 8.57905 28.4082 5.56205C25.3705 2.54531 21.3304 0.88305 17.0259 0.881104C8.15693 0.881104 0.938774 8.04084 0.935113 16.8412" fill="url(#paint0_linear_1_8917)"/>
<path d="M0.360623 16.8362C0.359707 19.7501 1.12691 22.5947 2.58548 25.102L0.220703 33.6692L9.0567 31.3703C11.4913 32.6874 14.2324 33.3819 17.0217 33.3829H17.0289C26.2149 33.3829 33.6929 25.9652 33.6968 16.8495C33.6984 12.4317 31.966 8.27739 28.8192 5.1523C25.6721 2.0276 21.4876 0.305527 17.0289 0.303711C7.84123 0.303711 0.364284 7.72036 0.360623 16.8362ZM5.62265 24.6702L5.29273 24.1505C3.90582 21.9624 3.17379 19.4338 3.17484 16.8373C3.17785 9.26039 9.39238 3.09598 17.0341 3.09598C20.7348 3.09754 24.2126 4.52897 26.8285 7.12609C29.4442 9.72348 30.8835 13.1762 30.8826 16.8484C30.8792 24.4253 24.6645 30.5905 17.0289 30.5905H17.0234C14.5371 30.5892 12.0987 29.9267 9.97219 28.6747L9.46613 28.3769L4.22267 29.741L5.62265 24.67V24.6702Z" fill="url(#paint1_linear_1_8917)"/>
<path d="M12.8628 9.92408C12.5508 9.23601 12.2225 9.22212 11.9258 9.21005C11.6828 9.19967 11.4051 9.20045 11.1276 9.20045C10.8498 9.20045 10.3986 9.30413 10.0171 9.71739C9.63527 10.131 8.55933 11.1306 8.55933 13.1637C8.55933 15.197 10.0518 17.1618 10.2598 17.4378C10.4681 17.7132 13.141 22.019 17.3741 23.6754C20.8923 25.0519 21.6082 24.7781 22.3718 24.7091C23.1354 24.6403 24.8359 23.7098 25.1828 22.7448C25.53 21.7799 25.53 20.9529 25.4259 20.7801C25.3218 20.6079 25.0441 20.5045 24.6276 20.2979C24.211 20.0912 22.1634 19.0915 21.7817 18.9536C21.3999 18.8158 21.1223 18.747 20.8445 19.1608C20.5668 19.5739 19.7692 20.5045 19.5262 20.7801C19.2833 21.0563 19.0402 21.0907 18.6239 20.884C18.2071 20.6767 16.8659 20.2408 15.2746 18.8331C14.0365 17.7378 13.2006 16.3851 12.9576 15.9713C12.7147 15.5582 12.9316 15.3342 13.1405 15.1283C13.3276 14.9432 13.5571 14.6458 13.7655 14.4046C13.9732 14.1632 14.0425 13.991 14.1814 13.7154C14.3204 13.4396 14.2508 13.1983 14.1468 12.9916C14.0425 12.7849 13.2332 10.7411 12.8628 9.92408Z" fill="white"/>
</g>
<defs>
<linearGradient id="paint0_linear_1_8917" x1="1616.63" y1="3221.92" x2="1616.63" y2="0.881104" gradientUnits="userSpaceOnUse">
<stop stop-color="#1FAF38"/>
<stop offset="1" stop-color="#60D669"/>
</linearGradient>
<linearGradient id="paint1_linear_1_8917" x1="1674.03" y1="3336.85" x2="1674.03" y2="0.303711" gradientUnits="userSpaceOnUse">
<stop stop-color="#F9F9F9"/>
<stop offset="1" stop-color="white"/>
</linearGradient>
<clipPath id="clip0_1_8917">
<rect width="33.4761" height="33.4761" fill="white" transform="translate(0.220703 0.303711)"/>
</clipPath>
</defs>
</svg>
