<svg width="34" height="34" viewBox="0 0 34 34" fill="none" xmlns="http://www.w3.org/2000/svg">
<g clip-path="url(#clip0_1_8921)">
<path d="M16.9903 0.303711C12.5521 0.303711 8.2917 2.06827 5.15593 5.20613C2.01692 8.34524 0.253067 12.6025 0.252197 17.0418C0.252197 21.4792 2.01754 25.7395 5.15593 28.8774C8.2917 32.0153 12.5521 33.7798 16.9903 33.7798C21.4285 33.7798 25.6888 32.0153 28.8246 28.8774C31.963 25.7395 33.7283 21.4792 33.7283 17.0418C33.7283 12.6044 31.963 8.344 28.8246 5.20613C25.6888 2.06827 21.4285 0.303711 16.9903 0.303711Z" fill="url(#paint0_linear_1_8921)"/>
<path d="M7.82872 16.8651C12.7089 14.7393 15.9624 13.3378 17.5891 12.6607C22.2391 10.7272 23.2042 10.3914 23.8345 10.38C23.9731 10.3778 24.2817 10.412 24.4831 10.5748C24.6505 10.7121 24.6975 10.8978 24.7211 11.0282C24.742 11.1584 24.7708 11.4553 24.7472 11.687C24.4962 14.3337 23.4056 20.7564 22.8511 23.7209C22.6184 24.9752 22.1554 25.3957 21.7082 25.4368C20.7353 25.5262 19.9978 24.7945 19.0563 24.1775C17.5839 23.2117 16.7522 22.6107 15.3216 21.6684C13.6687 20.5793 14.741 19.9807 15.6825 19.0026C15.9284 18.7465 20.2123 14.851 20.2933 14.4977C20.3038 14.4535 20.3143 14.2887 20.2149 14.2019C20.1181 14.1148 19.9743 14.1446 19.8697 14.1681C19.7206 14.2016 17.3694 15.7572 12.8083 18.8347C12.1414 19.2934 11.5372 19.517 10.9933 19.5052C10.397 19.4924 9.24622 19.1673 8.39101 18.8896C7.34488 18.5488 6.5106 18.3686 6.58382 17.7898C6.62044 17.4886 7.03627 17.1802 7.82872 16.8651Z" fill="white"/>
</g>
<defs>
<linearGradient id="paint0_linear_1_8921" x1="1674.06" y1="0.303711" x2="1674.06" y2="3347.92" gradientUnits="userSpaceOnUse">
<stop stop-color="#2AABEE"/>
<stop offset="1" stop-color="#229ED9"/>
</linearGradient>
<clipPath id="clip0_1_8921">
<rect width="33.4761" height="33.4761" fill="white" transform="translate(0.252197 0.303711)"/>
</clipPath>
</defs>
</svg>
