<svg width="46" height="33" viewBox="0 0 46 33" fill="none" xmlns="http://www.w3.org/2000/svg">
<g clip-path="url(#clip0_1_8924)">
<path d="M44.8423 5.38002C44.581 4.39885 44.0712 3.50435 43.3637 2.78559C42.6562 2.06683 41.7757 1.5489 40.8099 1.28335C37.274 0.303711 23.0432 0.303711 23.0432 0.303711C23.0432 0.303711 8.81169 0.333364 5.2758 1.31301C4.30995 1.57856 3.42944 2.09653 2.72194 2.81532C2.01444 3.53411 1.50464 4.42865 1.24332 5.40985C0.173796 11.7922 -0.241092 21.5173 1.27269 27.6444C1.53404 28.6255 2.04385 29.52 2.75134 30.2388C3.45884 30.9575 4.33934 31.4755 5.30517 31.741C8.84106 32.7207 23.0722 32.7207 23.0722 32.7207C23.0722 32.7207 37.3032 32.7207 40.8389 31.741C41.8047 31.4755 42.6853 30.9576 43.3928 30.2388C44.1003 29.5201 44.6102 28.6255 44.8715 27.6444C45.9996 21.253 46.3472 11.5338 44.8423 5.38002Z" fill="#FF0000"/>
<path d="M18.5137 23.4578L30.3192 16.5114L18.5137 9.56494L18.5137 23.4578Z" fill="white"/>
</g>
<defs>
<clipPath id="clip0_1_8924">
<rect width="45.5647" height="32.5462" fill="white" transform="translate(0.283936 0.303711)"/>
</clipPath>
</defs>
</svg>
