<svg width="25" height="25" viewBox="0 0 25 25" fill="none" xmlns="http://www.w3.org/2000/svg">
<path fill-rule="evenodd" clip-rule="evenodd" d="M16.8562 3.61911C16.0862 3.56005 15.1365 3.56005 13.9282 3.56006L12.2421 3.56006C11.0338 3.56005 10.0841 3.56005 9.31409 3.61911C8.52817 3.67939 7.87345 3.80414 7.26491 4.0831C6.2595 4.54401 5.40836 5.28511 4.81352 6.21756C4.65822 6.461 4.52959 6.71769 4.41986 6.99455C4.04652 7.93648 3.87393 9.17971 3.62278 10.9888L3.60154 11.1418C3.38764 12.6818 3.22042 13.8857 3.16964 14.8555C3.11807 15.8401 3.18045 16.6606 3.47664 17.4138C3.96075 18.645 4.85462 19.6716 6.00751 20.3205C6.71288 20.7175 7.51699 20.8922 8.49933 20.9765C9.46683 21.0596 10.6823 21.0596 12.2371 21.0596H13.9332C15.488 21.0596 16.7035 21.0596 17.671 20.9765C18.6533 20.8922 19.4574 20.7175 20.1628 20.3205C21.3157 19.6716 22.2096 18.645 22.6937 17.4138C22.9899 16.6606 23.0523 15.8401 23.0007 14.8555C22.9499 13.8857 22.7827 12.6817 22.5688 11.1416L22.5444 10.9661C22.2783 9.04916 22.1001 7.76545 21.6661 6.79412C21.5758 6.59199 21.4737 6.40083 21.3568 6.21756C20.762 5.28511 19.9108 4.54401 18.9054 4.0831C18.2969 3.80414 17.6421 3.67939 16.8562 3.61911ZM7.88998 5.44662C8.27359 5.27077 8.73219 5.16811 9.4288 5.11468C10.1348 5.06053 11.0271 5.06002 12.2731 5.06002H13.8972C15.1432 5.06002 16.0356 5.06053 16.7415 5.11468C17.4381 5.16811 17.8967 5.27077 18.2803 5.44662C19.0025 5.77768 19.617 6.30432 20.0546 6.96626L19.5044 7.51643C17.8228 9.19805 16.6138 10.4048 15.571 11.2004C14.5455 11.9828 13.7694 12.2966 12.9638 12.2966C12.1582 12.2966 11.3821 11.9828 10.3566 11.2004C9.31385 10.4048 8.10486 9.19805 6.42324 7.51643L6.02234 7.11553C6.04048 7.08449 6.05905 7.0541 6.07808 7.02426C6.51775 6.33506 7.14685 5.78729 7.88998 5.44662ZM20.6342 8.50789C20.7786 9.17544 20.9039 10.058 21.0781 11.3125C21.298 12.8958 21.4557 14.036 21.5028 14.9339C21.5494 15.8244 21.4811 16.3987 21.2977 16.865C20.9399 17.775 20.2792 18.5338 19.4271 19.0134C18.9905 19.2591 18.431 19.4058 17.5426 19.4821C16.6468 19.559 15.4957 19.5597 13.8972 19.5597H12.2731C10.6746 19.5597 9.52348 19.559 8.62769 19.4821C7.73927 19.4058 7.17979 19.2591 6.74321 19.0134C5.89107 18.5338 5.23039 17.775 4.87257 16.865C4.68925 16.3987 4.62091 15.8244 4.66755 14.9339C4.71457 14.036 4.87229 12.8958 5.09219 11.3125C5.24921 10.1819 5.36619 9.35266 5.4944 8.70885C7.08321 10.2976 8.33573 11.5452 9.44679 12.3929C10.6057 13.2771 11.6984 13.7966 12.9638 13.7966C14.2292 13.7966 15.322 13.2771 16.4809 12.3929C17.6131 11.529 18.8922 10.2499 20.5245 8.61764L20.6342 8.50789Z" fill="#B5B5B5"/>
</svg>
