<svg width="206" height="207" viewBox="0 0 206 207" fill="none" xmlns="http://www.w3.org/2000/svg">
<g opacity="0.1" clip-path="url(#clip0_1_8883)">
<path fill-rule="evenodd" clip-rule="evenodd" d="M137.345 35.1518C143.459 39.8386 147.331 47.9468 155.076 64.1634L158.351 71.0213C163.022 80.8033 165.358 85.6942 166.094 90.2425C167.838 101.031 163.972 111.966 155.834 119.26C152.403 122.335 147.512 124.671 137.73 129.342L134.552 130.86L134.175 131.041C128.285 133.9 123.411 138.493 120.206 144.203L120.003 144.568L110.042 162.588C106.627 168.765 97.263 166.672 96.8042 159.628C96.4793 154.639 91.2179 151.555 86.7061 153.71L83.2212 155.374C71.1582 161.135 56.7091 156.026 50.9481 143.963L39.254 119.477C31.5094 103.26 27.6371 95.1518 27.835 87.4507C28.0091 80.6766 30.3232 74.1315 34.4458 68.7535C39.1325 62.6395 47.2408 58.7672 63.4573 51.0227L86.6217 39.96C102.838 32.2154 110.947 28.3431 118.648 28.541C125.422 28.7151 131.967 31.0293 137.345 35.1518ZM80.8496 97.9503C82.7649 92.5331 89.7116 91.0255 93.7003 95.1613C102.657 104.448 118.255 101.063 122.556 88.8986L124.867 82.3618C125.753 79.8556 124.44 77.1056 121.934 76.2194C119.427 75.3333 116.677 76.6467 115.791 79.1529L113.48 85.6896C111.565 91.1068 104.618 92.6145 100.629 88.4787C91.6729 79.192 76.0746 82.5774 71.7738 94.7414L69.4626 101.278C68.5764 103.784 69.8898 106.534 72.396 107.421C74.9022 108.307 77.6522 106.993 78.5384 104.487L80.8496 97.9503Z" fill="url(#paint0_linear_1_8883)"/>
</g>
<defs>
<linearGradient id="paint0_linear_1_8883" x1="75.0395" y1="45.4913" x2="72.614" y2="219.113" gradientUnits="userSpaceOnUse">
<stop stop-color="#444BFF"/>
<stop offset="1" stop-color="#DDDEFF"/>
</linearGradient>
<clipPath id="clip0_1_8883">
<rect width="154.022" height="154.022" fill="white" transform="translate(0.015625 67.0972) rotate(-25.5279)"/>
</clipPath>
</defs>
</svg>
