<svg width="29" height="29" viewBox="0 0 29 29" fill="none" xmlns="http://www.w3.org/2000/svg">
<path fill-rule="evenodd" clip-rule="evenodd" d="M25.5706 6.21987C26.2138 7.48222 26.2138 9.13472 26.2138 12.4397V13.8374C26.2138 15.831 26.2138 16.8278 25.9754 17.6409C25.4099 19.5696 23.9017 21.0778 21.973 21.6433C21.1599 21.8817 20.1631 21.8817 18.1695 21.8817H17.5218L17.445 21.8818C16.2408 21.8895 15.0679 22.2654 14.0835 22.959L14.021 23.0036L10.9396 25.2045C9.88334 25.959 8.49529 24.8694 8.97739 23.6642C9.31889 22.8104 8.69013 21.8817 7.7706 21.8817H7.06038C4.60189 21.8817 2.60889 19.8887 2.60889 17.4302L2.60889 12.4397C2.60889 9.13472 2.60889 7.48222 3.25208 6.21987C3.81785 5.10948 4.72063 4.20671 5.83102 3.64094C7.09336 2.99774 8.74587 2.99774 12.0509 2.99774L16.7719 2.99774C20.0769 2.99774 21.7294 2.99774 22.9917 3.64094C24.1021 4.20671 25.0049 5.10948 25.5706 6.21987ZM11.2179 12.164C11.9651 11.4168 13.2374 11.7172 13.5716 12.7196C14.3219 14.9706 17.1788 15.6451 18.8566 13.9673L19.7583 13.0656C20.104 12.72 20.104 12.1595 19.7583 11.8138C19.4126 11.4681 18.8521 11.4681 18.5064 11.8138L17.6048 12.7154C16.8576 13.4626 15.5853 13.1623 15.2511 12.1598C14.5008 9.90879 11.6439 9.23437 9.96608 10.9122L9.06445 11.8138C8.71877 12.1595 8.71877 12.72 9.06445 13.0656C9.41014 13.4113 9.97061 13.4113 10.3163 13.0656L11.2179 12.164Z" fill="url(#paint0_linear_1_8751)"/>
<defs>
<linearGradient id="paint0_linear_1_8751" x1="14.4114" y1="2.99774" x2="0.248427" y2="31.6187" gradientUnits="userSpaceOnUse">
<stop stop-color="#444BFF"/>
<stop offset="1" stop-color="#DDDEFF"/>
</linearGradient>
</defs>
</svg>
