<svg width="83" height="83" viewBox="0 0 83 83" fill="none" xmlns="http://www.w3.org/2000/svg">
<g opacity="0.1" clip-path="url(#clip0_1_8884)">
<path fill-rule="evenodd" clip-rule="evenodd" d="M55.5059 14.3081C57.961 16.1901 59.516 19.4461 62.6259 25.9581L63.9411 28.7119C65.817 32.64 66.755 34.604 67.0503 36.4304C67.7509 40.7627 66.1984 45.1536 62.9304 48.0826C61.5527 49.3175 59.5887 50.2554 55.6606 52.1314L54.3844 52.7409L54.2331 52.8134C51.8678 53.9617 49.9104 55.806 48.6236 58.0989L48.5422 58.2456L44.5421 65.4816C43.1708 67.9622 39.4105 67.1214 39.2263 64.293C39.0958 62.2895 36.9831 61.0513 35.1713 61.9165L33.7719 62.5848C28.9279 64.8982 23.1257 62.8467 20.8123 58.0027L16.1164 48.1697C13.0064 41.6578 11.4515 38.4018 11.5309 35.3093C11.6009 32.5891 12.5301 29.9609 14.1856 27.8013C16.0676 25.3461 19.3236 23.7912 25.8355 20.6813L35.1374 16.2389C41.6494 13.129 44.9053 11.574 47.9978 11.6535C50.718 11.7234 53.3463 12.6527 55.5059 14.3081ZM32.8196 39.5256C33.5887 37.3503 36.3782 36.7448 37.9799 38.4056C41.5765 42.1348 47.8401 40.7754 49.5672 35.8908L50.4953 33.2659C50.8511 32.2595 50.3237 31.1551 49.3173 30.7993C48.3109 30.4435 47.2066 30.9709 46.8508 31.9773L45.9227 34.6022C45.1536 36.7775 42.364 37.3829 40.7623 35.7222C37.1658 31.993 30.9021 33.3524 29.1751 38.237L28.247 40.8619C27.8911 41.8683 28.4185 42.9726 29.4249 43.3285C30.4313 43.6843 31.5356 43.1569 31.8915 42.1505L32.8196 39.5256Z" fill="url(#paint0_linear_1_8884)"/>
</g>
<defs>
<linearGradient id="paint0_linear_1_8884" x1="30.4865" y1="18.4601" x2="29.5125" y2="88.1799" gradientUnits="userSpaceOnUse">
<stop stop-color="#444BFF"/>
<stop offset="1" stop-color="#DDDEFF"/>
</linearGradient>
<clipPath id="clip0_1_8884">
<rect width="61.8494" height="61.8494" fill="white" transform="translate(0.359375 27.1362) rotate(-25.5278)"/>
</clipPath>
</defs>
</svg>
