<svg width="18" height="18" viewBox="0 0 18 18" fill="none" xmlns="http://www.w3.org/2000/svg">
<path d="M10.8315 17.8668H7.70635C7.51054 17.8668 7.3206 17.7994 7.16803 17.6758C7.01546 17.5521 6.90944 17.3796 6.86753 17.1869L6.5181 15.5572C6.05195 15.3514 5.60994 15.0941 5.20021 14.7899L3.62303 15.2959C3.43635 15.3559 3.23492 15.3498 3.05219 15.2785C2.86946 15.2072 2.71643 15.0751 2.61851 14.9041L1.0525 12.1784C0.955606 12.0072 0.919234 11.808 0.949335 11.6133C0.979436 11.4186 1.07423 11.2399 1.2182 11.1066L2.44165 9.98204C2.38601 9.47264 2.38601 8.95861 2.44165 8.44921L1.2182 7.32726C1.07402 7.19385 0.979104 7.01505 0.948998 6.82016C0.918892 6.62528 0.955386 6.42587 1.0525 6.25462L2.61508 3.52717C2.713 3.35617 2.86603 3.22405 3.04876 3.15277C3.23148 3.08149 3.43291 3.07533 3.6196 3.13531L5.19677 3.64135C5.40626 3.48565 5.62434 3.34032 5.84928 3.20884C6.0665 3.086 6.28972 2.97441 6.5181 2.87493L6.86839 1.24694C6.91009 1.05421 7.01592 0.881629 7.16833 0.757809C7.32073 0.633989 7.51057 0.56637 7.70635 0.566162L10.8315 0.566162C11.0273 0.56637 11.2171 0.633989 11.3695 0.757809C11.5219 0.881629 11.6278 1.05421 11.6695 1.24694L12.0232 2.8758C12.4887 3.08277 12.9306 3.34004 13.3411 3.64308L14.9191 3.13704C15.1057 3.07728 15.3069 3.08355 15.4895 3.15483C15.672 3.2261 15.8249 3.35808 15.9228 3.5289L17.4854 6.25635C17.6845 6.60842 17.6159 7.05391 17.3197 7.32812L16.0962 8.45267C16.1518 8.96207 16.1518 9.4761 16.0962 9.9855L17.3197 11.11C17.6159 11.3851 17.6845 11.8298 17.4854 12.1818L15.9228 14.9093C15.8249 15.0803 15.6718 15.2124 15.4891 15.2837C15.3064 15.3549 15.1049 15.3611 14.9183 15.3011L13.3411 14.7951C12.9317 15.099 12.4899 15.3561 12.0241 15.5615L11.6695 17.1869C11.6276 17.3795 11.5217 17.5519 11.3693 17.6755C11.2169 17.7992 11.0272 17.8667 10.8315 17.8668ZM9.2655 5.75636C8.35468 5.75636 7.48116 6.12091 6.83712 6.76981C6.19307 7.41871 5.83125 8.29881 5.83125 9.21649C5.83125 10.1342 6.19307 11.0143 6.83712 11.6632C7.48116 12.3121 8.35468 12.6766 9.2655 12.6766C10.1763 12.6766 11.0498 12.3121 11.6939 11.6632C12.3379 11.0143 12.6997 10.1342 12.6997 9.21649C12.6997 8.29881 12.3379 7.41871 11.6939 6.76981C11.0498 6.12091 10.1763 5.75636 9.2655 5.75636Z" fill="black"/>
</svg>
