<svg width="34" height="34" viewBox="0 0 34 34" fill="none" xmlns="http://www.w3.org/2000/svg">
<g clip-path="url(#clip0_1_8912)">
<path d="M25.8191 0.303955L8.03493 0.303955C3.70172 0.303955 0.188965 3.81671 0.188965 8.14992L0.188965 25.9341C0.188965 30.2673 3.70172 33.7801 8.03493 33.7801L25.8191 33.7801C30.1523 33.7801 33.6651 30.2673 33.6651 25.9341L33.6651 8.14992C33.6651 3.81671 30.1523 0.303955 25.8191 0.303955Z" fill="url(#paint0_radial_1_8912)"/>
<path d="M25.8191 0.303955L8.03493 0.303955C3.70172 0.303955 0.188965 3.81671 0.188965 8.14992L0.188965 25.9341C0.188965 30.2673 3.70172 33.7801 8.03493 33.7801L25.8191 33.7801C30.1523 33.7801 33.6651 30.2673 33.6651 25.9341L33.6651 8.14992C33.6651 3.81671 30.1523 0.303955 25.8191 0.303955Z" fill="url(#paint1_radial_1_8912)"/>
<path d="M16.9281 3.96509C13.3768 3.96509 12.931 3.98065 11.5362 4.04407C10.1441 4.10788 9.19384 4.32823 8.36243 4.65161C7.50225 4.98559 6.7727 5.43241 6.0459 6.15947C5.31845 6.8864 4.87163 7.61595 4.5366 8.47573C4.2123 9.3074 3.9917 10.2581 3.92906 11.6496C3.86669 13.0444 3.85034 13.4904 3.85034 17.0418C3.85034 20.5933 3.86603 21.0376 3.92932 22.4324C3.9934 23.8245 4.21374 24.7748 4.53686 25.6062C4.8711 26.4664 5.31793 27.1959 6.04499 27.9227C6.77166 28.6502 7.5012 29.0981 8.36073 29.432C9.19279 29.7554 10.1432 29.9758 11.5351 30.0396C12.93 30.103 13.3753 30.1186 16.9266 30.1186C20.4783 30.1186 20.9226 30.103 22.3174 30.0396C23.7095 29.9758 24.6609 29.7554 25.4929 29.432C26.3527 29.0981 27.0812 28.6502 27.8077 27.9227C28.5352 27.1959 28.9819 26.4664 29.317 25.6066C29.6385 24.7748 29.8592 23.8243 29.9246 22.4327C29.9872 21.0379 30.0036 20.5933 30.0036 17.0418C30.0036 13.4904 29.9872 13.0447 29.9246 11.6498C29.8592 10.2577 29.6385 9.30754 29.317 8.47613C28.9819 7.61595 28.5352 6.8864 27.8077 6.15947C27.0804 5.43215 26.353 4.98532 25.4921 4.65174C24.6585 4.32823 23.7077 4.10775 22.3156 4.04407C20.9207 3.98065 20.4766 3.96509 16.9241 3.96509H16.9281ZM15.755 6.32162C16.1033 6.3211 16.4918 6.32162 16.9281 6.32162C20.4197 6.32162 20.8335 6.33418 22.2123 6.39681C23.4872 6.45514 24.1792 6.66815 24.6402 6.84717C25.2505 7.08412 25.6855 7.36749 26.143 7.8253C26.6006 8.28298 26.8839 8.71883 27.1215 9.32911C27.3005 9.78941 27.5138 10.4814 27.5718 11.7564C27.6345 13.1349 27.6481 13.5489 27.6481 17.0388C27.6481 20.5287 27.6345 20.9428 27.5718 22.3212C27.5135 23.5962 27.3005 24.2882 27.1215 24.7487C26.8845 25.3589 26.6006 25.7935 26.143 26.2509C25.6853 26.7086 25.2507 26.9918 24.6402 27.2289C24.1798 27.4087 23.4872 27.6212 22.2123 27.6795C20.8337 27.7422 20.4197 27.7558 16.9281 27.7558C13.4364 27.7558 13.0225 27.7422 11.6441 27.6795C10.3692 27.6207 9.67715 27.4077 9.21581 27.2286C8.60565 26.9916 8.16968 26.7083 7.712 26.2506C7.25431 25.793 6.97107 25.3582 6.73347 24.7476C6.55445 24.2872 6.34117 23.5952 6.28311 22.3202C6.22048 20.9417 6.20792 20.5277 6.20792 17.0356C6.20792 13.5436 6.22048 13.1317 6.28311 11.7531C6.34144 10.4782 6.55445 9.78614 6.73347 9.32519C6.97055 8.7149 7.25431 8.27906 7.71213 7.82138C8.16981 7.3637 8.60565 7.08033 9.21594 6.84286C9.67689 6.66305 10.3692 6.45056 11.6441 6.39198C12.8504 6.33745 13.3179 6.3211 15.755 6.31835V6.32162ZM23.9084 8.49286C23.0421 8.49286 22.3392 9.19508 22.3392 10.0615C22.3392 10.9279 23.0421 11.6307 23.9084 11.6307C24.7747 11.6307 25.4776 10.9279 25.4776 10.0615C25.4776 9.19521 24.7747 8.49234 23.9084 8.49234V8.49286ZM16.9281 10.3263C13.2196 10.3263 10.2128 13.3332 10.2128 17.0418C10.2128 20.7505 13.2196 23.7559 16.9281 23.7559C20.6368 23.7559 23.6426 20.7505 23.6426 17.0418C23.6426 13.3333 20.6365 10.3263 16.9279 10.3263H16.9281ZM16.9281 12.6829C19.3354 12.6829 21.2871 14.6343 21.2871 17.0418C21.2871 19.4491 19.3354 21.4008 16.9281 21.4008C14.5207 21.4008 12.5693 19.4491 12.5693 17.0418C12.5693 14.6343 14.5207 12.6829 16.9281 12.6829Z" fill="white"/>
</g>
<defs>
<radialGradient id="paint0_radial_1_8912" cx="0" cy="0" r="1" gradientUnits="userSpaceOnUse" gradientTransform="translate(9.08106 36.3584) rotate(-90) scale(33.1773 30.8575)">
<stop stop-color="#FFDD55"/>
<stop offset="0.1" stop-color="#FFDD55"/>
<stop offset="0.5" stop-color="#FF543E"/>
<stop offset="1" stop-color="#C837AB"/>
</radialGradient>
<radialGradient id="paint1_radial_1_8912" cx="0" cy="0" r="1" gradientUnits="userSpaceOnUse" gradientTransform="translate(-5.41842 2.71541) rotate(78.681) scale(14.8304 61.1316)">
<stop stop-color="#3771C8"/>
<stop offset="0.128" stop-color="#3771C8"/>
<stop offset="1" stop-color="#6600FF" stop-opacity="0"/>
</radialGradient>
<clipPath id="clip0_1_8912">
<rect width="33.4761" height="33.4761" fill="white" transform="translate(0.188965 0.303711)"/>
</clipPath>
</defs>
</svg>
