<svg width="24" height="24" viewBox="0 0 24 24" fill="none" xmlns="http://www.w3.org/2000/svg">
<g clip-path="url(#clip0_1_8846)">
<path d="M5.72259 1.84202C6.03275 1.59389 6.08304 1.14129 5.83491 0.831123C5.58677 0.520954 5.13418 0.470666 4.82401 0.718801L2.42663 2.6367C2.11646 2.88484 2.06617 3.33743 2.31431 3.6476C2.56244 3.95777 3.01504 4.00806 3.32521 3.75993L5.72259 1.84202Z" fill="white"/>
<path d="M18.189 0.718801C17.8788 0.470666 17.4262 0.520954 17.1781 0.831123C16.9299 1.14129 16.9802 1.59389 17.2904 1.84202L19.6877 3.75993C19.9979 4.00806 20.4505 3.95777 20.6987 3.6476C20.9468 3.33743 20.8965 2.88484 20.5863 2.6367L18.189 0.718801Z" fill="white"/>
<path d="M12.2257 6.79438C12.2257 6.39717 11.9037 6.07517 11.5065 6.07517C11.1093 6.07517 10.7873 6.39717 10.7873 6.79438V11.5891C10.7874 12.2728 11.6139 12.6152 12.0973 12.1318L14.0493 10.1798C14.3302 9.89893 14.3302 9.44355 14.0493 9.16268C13.7684 8.88181 13.313 8.88181 13.0322 9.16268L12.2257 9.96916V6.79438Z" fill="white"/>
<path fill-rule="evenodd" clip-rule="evenodd" d="M11.5065 1.28041C5.81313 1.28041 1.19775 5.89579 1.19775 11.5891C1.19775 17.2825 5.81313 21.8979 11.5065 21.8979C17.1998 21.8979 21.8152 17.2825 21.8152 11.5891C21.8152 5.89579 17.1998 1.28041 11.5065 1.28041ZM2.63618 11.5891C2.63618 6.69021 6.60755 2.71884 11.5065 2.71884C16.4054 2.71884 20.3768 6.69021 20.3768 11.5891C20.3768 16.4881 16.4054 20.4594 11.5065 20.4594C6.60755 20.4594 2.63618 16.4881 2.63618 11.5891Z" fill="white"/>
</g>
<defs>
<clipPath id="clip0_1_8846">
<rect width="23.0148" height="23.0148" fill="white" transform="translate(-0.00195312 0.0817261)"/>
</clipPath>
</defs>
</svg>
